<!-- Generated by IcoMoon.io -->
<svg version="1.1" xmlns="http://www.w3.org/2000/svg" width="16" height="16" viewBox="0 0 16 16">
<title>triangle</title>
<path d="M15.333 11.667l-5.6-9.467c-0.267-0.467-0.733-0.8-1.267-0.933s-1.067-0.067-1.533 0.2c-0.267 0.133-0.533 0.4-0.667 0.667 0 0 0 0 0 0l-5.6 9.533c-0.533 0.933-0.2 2.2 0.733 2.733 0.267 0.2 0.6 0.267 0.933 0.267h11.333c0.533 0 1.067-0.2 1.4-0.6 0.4-0.4 0.6-0.867 0.6-1.4-0.067-0.333-0.133-0.733-0.333-1zM14.133 13.133c-0.133 0.133-0.333 0.2-0.467 0.2h-11.333c-0.133 0-0.2 0-0.333-0.067-0.333-0.2-0.4-0.6-0.267-0.933l5.667-9.4c0.067-0.067 0.133-0.2 0.2-0.2 0.333-0.2 0.733-0.067 0.933 0.2l5.667 9.4c0.067 0.067 0.067 0.2 0.067 0.333 0.067 0.2-0.067 0.333-0.133 0.467z"></path>
</svg>
